<mxfile host="app.diagrams.net" agent="Mozilla/5.0 (Windows NT 10.0; Win64; x64) AppleWebKit/537.36 (KHTML, like Gecko) Chrome/140.0.0.0 Safari/537.36 Edg/140.0.0.0" version="28.2.5">
  <diagram name="第 1 页" id="Vhmsb-xP6byeZt4mDJpb">
    <mxGraphModel dx="1770" dy="850" grid="1" gridSize="10" guides="1" tooltips="1" connect="1" arrows="1" fold="1" page="1" pageScale="1" pageWidth="827" pageHeight="1169" math="0" shadow="0">
      <root>
        <mxCell id="0" />
        <mxCell id="1" parent="0" />
        <mxCell id="5o3M67hcCIXp2R0ZWf0G-1" value="消費機開機" style="rounded=0;whiteSpace=wrap;html=1;" vertex="1" parent="1">
          <mxGeometry x="130" y="130" width="120" height="60" as="geometry" />
        </mxCell>
        <mxCell id="5o3M67hcCIXp2R0ZWf0G-2" value="" style="html=1;shadow=0;dashed=0;align=center;verticalAlign=middle;shape=mxgraph.arrows2.arrow;dy=0.6;dx=40;notch=0;" vertex="1" parent="1">
          <mxGeometry x="280" y="350" width="100" height="30" as="geometry" />
        </mxCell>
        <mxCell id="5o3M67hcCIXp2R0ZWf0G-3" value="狀態初始化" style="verticalLabelPosition=bottom;verticalAlign=top;html=1;shape=process;whiteSpace=wrap;rounded=1;size=0.14;arcSize=6;" vertex="1" parent="1">
          <mxGeometry x="320" y="130" width="100" height="60" as="geometry" />
        </mxCell>
      </root>
    </mxGraphModel>
  </diagram>
</mxfile>
